<?xml version="1.0" encoding="UTF-8"?>
<svg width="143px" height="140px" viewBox="0 0 143 140" version="1.1" xmlns="http://www.w3.org/2000/svg" xmlns:xlink="http://www.w3.org/1999/xlink">
    <!-- Generator: Sketch 42 (36781) - http://www.bohemiancoding.com/sketch -->
    <title>Group 10@svg</title>
    <desc>Created with Sketch.</desc>
    <defs>
        <rect id="path-1" x="0" y="0" width="143" height="140" rx="6"></rect>
        <mask id="mask-2" maskContentUnits="userSpaceOnUse" maskUnits="objectBoundingBox" x="0" y="0" width="143" height="140" fill="white">
            <use xlink:href="#path-1"></use>
        </mask>
        <mask id="mask-4" maskContentUnits="userSpaceOnUse" maskUnits="objectBoundingBox" x="0" y="0" width="143" height="140" fill="white">
            <use xlink:href="#path-1"></use>
        </mask>
    </defs>
    <g id="icons" stroke="none" stroke-width="1" fill="none" fill-rule="evenodd">
        <g id="flower_icon" transform="translate(-19.000000, -20.000000)">
            <g id="flower" transform="translate(19.000000, 20.000000)">
                <g id="Group-4">
                    <g id="Group">
                        <mask id="mask-3" fill="white">
                            <use xlink:href="#path-1"></use>
                        </mask>
                    </g>
                </g>
                <g id="Group" transform="translate(17.000000, 20.000000)">
                    <path d="M42.2452391,70.3135752 C49.4210905,62.2304559 55.3434039,57.1229882 55.3434039,57.1229882 C55.3434039,57.1229882 60.9602875,60.980979 68.553616,67.4213487 C62.9771805,57.9603999 59.8875236,50.6013535 59.8875236,50.6013535 C59.8875236,50.6013535 65.5092511,46.2850718 74.2724561,40.9070658 C63.4061531,43.3392282 55.30984,44.0155149 55.30984,44.0155149 C55.30984,44.0155149 53.0888671,37.7494289 50.762503,28.2737405 C49.7060906,38.9373011 47.9365562,46.4668775 47.9365562,46.4668775 C47.9365562,46.4668775 40.8503974,46.6544817 30.5984874,45.8542938 C40.9232471,50.3035454 47.9572998,54.5677415 47.9572998,54.5677415 C47.9572998,54.5677415 46.0238712,61.1018117 42.2452336,70.3135814 Z M36.7953025,79.2287229 C30.9538951,84.9278013 21.871941,86.8401119 13.6878184,83.366158 C2.90859443,78.7906489 -2.23126572,66.6041022 2.20761943,56.1467441 C5.546503,48.2808273 13.3538942,43.6337863 21.6057894,43.7609115 C14.0538296,40.0979956 9.1626126,31.8626961 9.95778238,22.773864 C10.9783867,11.1083027 20.9801773,2.45415518 32.2974068,3.44428446 C40.5747794,4.16846073 47.2632928,9.85117159 49.8599078,17.4159053 C51.265925,9.40941158 57.4755779,2.5667658 66.1071483,0.574010742 C77.5171405,-2.06019351 88.8384471,4.77779588 91.3939944,15.8470875 C93.3179407,24.1806146 89.7250931,32.5365787 82.9629427,37.281908 C91.1722726,35.8941922 99.8750721,39.6832942 104.539401,47.4460409 C110.57056,57.4835744 107.565721,70.3638318 97.8279069,76.214901 C90.6367622,80.5357766 81.7847823,79.814989 75.2177084,75.1000828 C78.9859222,82.4569249 78.044544,91.8248462 72.1424734,98.6144019 C64.4599422,107.452143 51.2815434,108.57459 42.7076958,101.121458 C36.3638729,95.6068573 34.3183009,86.942606 36.7953025,79.2287229 Z" id="Oval" stroke="#2364AA" fill="#F7F9F9"></path>
                    <path d="M43.5077469,72.4471361 C50.9013388,64.1187466 57.003356,58.8563003 57.003356,58.8563003 C57.003356,58.8563003 62.7906757,62.8313562 70.6144125,69.4671493 C64.8687682,59.7191221 61.6853603,52.1367763 61.6853603,52.1367763 C61.6853603,52.1367763 67.4776708,47.6895235 76.5067822,42.1483299 C65.3107574,44.6542927 56.9687737,45.3511002 56.9687737,45.3511002 C56.9687737,45.3511002 54.6804086,38.8948792 52.2834545,29.1316651 C51.1949869,40.1187956 49.3717586,47.8768458 49.3717586,47.8768458 C49.3717586,47.8768458 42.0705808,48.0701425 31.5075918,47.2456742 C42.145641,51.8299317 49.3931316,56.2235185 49.3931316,56.2235185 C49.3931316,56.2235185 47.401036,62.9558553 43.5077413,72.4471425 Z M37.8924401,81.6328007 C31.8737839,87.5048092 22.5162514,89.475146 14.0837937,85.8957801 C2.97749025,81.181434 -2.31833132,68.6251046 2.2552452,57.8504335 C5.69544223,49.7458372 13.7397371,44.9577886 22.2420238,45.0887713 C14.460911,41.3147097 9.42127731,32.8295223 10.2405753,23.464903 C11.2921484,11.4453676 21.5974284,2.52862287 33.2580624,3.54879615 C41.7865996,4.29494648 48.678066,10.1500908 51.3534714,17.9443651 C52.8021522,9.69492619 59.2002277,2.64465049 68.0937103,0.591428244 C79.8499217,-2.12270702 91.5147566,4.92277099 94.1478482,16.3279438 C96.1301738,24.9143394 92.4283065,33.5238528 85.4609687,38.4131721 C93.9193985,36.9833481 102.886272,40.8874248 107.692132,48.8857205 C113.906298,59.227828 110.810282,72.4989177 100.776988,78.5275288 C93.3676389,82.979515 84.2470588,82.2368562 77.4807168,77.3788832 C81.3632714,84.9589577 80.3933285,94.6111347 74.3121683,101.606709 C66.3965222,110.712619 52.8182445,111.869125 43.9842362,104.189839 C37.4479194,98.5079053 35.3402775,89.5807501 37.8924401,81.6328007 Z" id="Oval" fill="#907AD6" opacity="0.559839221"></path>
                    <path d="M52.7237553,42.1814034 C52.5608453,41.7232749 52.3166695,41.2887649 51.988822,40.8980514 C50.42403,39.0332049 47.5456821,38.8722587 45.559852,40.538568 C43.574022,42.2048773 43.2327032,45.0674446 44.7974951,46.9322911 C45.1571118,47.3608655 45.5861054,47.6994466 46.0576985,47.946537 M60.2629212,46.901145 C60.6482854,46.6046389 60.9860745,46.238143 61.2563546,45.8056043 C62.5463817,43.7411295 61.8099922,40.9539229 59.6115826,39.5802041 C57.4131731,38.2064854 54.5852365,38.7664539 53.2952094,40.8309287 C52.9987385,41.3053813 52.8092951,41.8180058 52.7200284,42.3428726 M58.0981069,55.616357 C58.4991851,55.8912347 58.952126,56.0992377 59.4470158,56.2226276 C61.8090884,56.8115584 64.2323225,55.2499162 64.8594608,52.7346021 C65.4865991,50.2192879 64.0801569,47.7028001 61.7180844,47.1138693 C61.1752386,46.9785227 60.6291625,46.9567609 60.1023996,47.034056 M49.2210122,56.2829125 C49.083528,56.7493024 49.0256718,57.2443513 49.0612504,57.7531491 C49.2310644,60.1816032 51.465095,62.0036619 54.0510973,61.822831 C56.6370996,61.6420001 58.5958071,59.5267566 58.4259931,57.0983025 C58.3869668,56.5402011 58.2389167,56.0141271 58.002626,55.5370313 M45.8994802,47.9796545 C45.4134321,47.9930217 44.9247341,48.0909757 44.4518331,48.2820401 C42.1947114,49.1939765 41.152184,51.8817129 42.1232831,54.2852674 C43.0943821,56.6888219 45.7113721,57.8980173 47.9684938,56.9860809 C48.48722,56.7765019 48.9417961,56.4731321 49.3225233,56.1009756" id="Oval-2" stroke="#2364AA" fill="#F7F9F9"></path>
                    <path d="M53.1296732,42.3062451 C52.9607202,41.8311227 52.7074869,41.3804948 52.3674781,40.9752881 C50.7446412,39.0412665 47.759523,38.8743501 45.70003,40.6024699 C43.640537,42.3305898 43.2865572,45.299342 44.909394,47.2333637 C45.2823504,47.6778358 45.7272573,48.0289764 46.2163437,48.2852324 M60.9484993,47.2010623 C61.3481582,46.8935575 61.6984774,46.5134667 61.9787833,46.0648833 C63.3166631,43.9238282 62.5529577,41.0332321 60.2729997,39.6085562 C57.9930417,38.1838804 55.0602048,38.7646205 53.7223251,40.9056756 C53.4148568,41.3977277 53.2183861,41.9293676 53.1258081,42.4737039 M58.7033827,56.239559 C59.1193385,56.5246331 59.589081,56.7403518 60.1023284,56.8683188 C62.5520204,57.4790956 65.0651428,55.8595253 65.7155443,53.2509074 C66.3659458,50.6422894 64.9073326,48.0324543 62.4576407,47.4216775 C61.8946584,47.2813102 61.328326,47.2587412 60.7820232,47.3389036 M49.4969983,56.9308399 C49.3544142,57.4145302 49.2944119,57.9279426 49.3313103,58.4556139 C49.5074235,60.9741498 51.8243238,62.8637965 54.506252,62.6762578 C57.1881803,62.4887191 59.2195447,60.2950121 59.0434315,57.7764762 C59.0029576,57.1976724 58.8494157,56.6520841 58.6043599,56.1572908 M46.0522565,48.3195784 C45.5481788,48.3334414 45.0413528,48.4350289 44.5509098,48.6331807 C42.2100618,49.5789447 41.1288626,52.3663808 42.1359839,54.8590935 C43.1431052,57.3518062 45.8571706,58.6058559 48.1980187,57.6600919 C48.7359867,57.4427387 49.2074249,57.1281156 49.6022749,56.7421542" id="Oval-2" fill="#F5E196" opacity="0.692991395"></path>
                    <polygon id="Path-10" stroke="#2364AA" fill="#F7F9F9" points="46.0050434 47.9870406 52.7555155 42.1129174 60.1459804 46.9546757 58.143767 55.6002041 49.1592439 56.1445036"></polygon>
                    <polygon id="Path-10" fill="#FF7058" opacity="0.694067029" points="46.0050434 48.5399335 53.3908935 42.1129174 61.4769747 47.4103989 59.286306 56.8696746 49.4561282 57.4652055"></polygon>
                </g>
            </g>
        </g>
    </g>
</svg>
